<svg data-v-fde0c5aa="" xmlns="http://www.w3.org/2000/svg" viewBox="0 0 120 25" class="iconLeft"><!----><defs data-v-fde0c5aa=""><!----></defs><rect data-v-fde0c5aa="" fill="none" x="0" y="0" width="300px" height="300px" class="logo-background-square"></rect><defs data-v-fde0c5aa=""><!----></defs><g data-v-fde0c5aa="" id="e87d58f1-d737-41a7-9d74-8570be5e8d10" fill="#3563E9" transform="matrix(1.9860838935061527,0,0,1.9860838935061527,38.520841127292094,-4.540600128275915)"><path d="M7.54 3.82L7.54 10.78L2.57 3.82L1.17 3.82L1.17 13.15L2.61 13.15L2.61 6.21L7.58 13.15L8.97 13.15L8.97 3.82ZM14.22 13.34C16.30 13.34 17.75 11.81 17.75 9.84C17.75 7.89 16.30 6.36 14.22 6.36C12.10 6.36 10.66 7.89 10.66 9.84C10.66 11.81 12.10 13.34 14.22 13.34ZM14.22 12.13C12.99 12.13 12.13 11.14 12.13 9.84C12.13 8.56 12.99 7.57 14.22 7.57C15.43 7.57 16.29 8.56 16.29 9.84C16.29 11.14 15.43 12.13 14.22 12.13ZM22.21 11.93C22.12 11.99 21.89 12.06 21.61 12.06C21.16 12.06 20.88 11.80 20.88 11.20L20.88 7.67L22.28 7.67L22.28 6.53L20.88 6.53L20.88 4.64L19.47 4.64L19.47 6.53L18.59 6.53L18.59 7.67L19.47 7.67L19.47 11.32C19.47 12.91 20.46 13.27 21.28 13.27C21.80 13.27 22.23 13.17 22.40 13.08ZM29.88 9.70C29.88 7.73 28.55 6.36 26.63 6.36C24.63 6.36 23.22 7.89 23.22 9.84C23.22 11.80 24.62 13.31 26.79 13.31C27.94 13.31 28.90 12.92 29.50 12.25L28.53 11.46C28.10 11.94 27.53 12.19 26.77 12.19C25.54 12.19 24.81 11.33 24.70 10.15L29.88 10.15ZM26.63 7.50C27.66 7.50 28.34 8.12 28.48 9.17L24.76 9.17C24.97 8.17 25.65 7.50 26.63 7.50ZM30.63 12.22C31.11 12.88 32.11 13.34 33.35 13.34C34.99 13.34 35.99 12.54 35.99 11.35C35.99 9.00 32.49 9.79 32.49 8.36C32.49 7.86 32.87 7.53 33.64 7.51C34.13 7.50 34.68 7.73 35.07 8.11L35.85 7.22C35.41 6.75 34.56 6.36 33.59 6.36C32.01 6.36 31.05 7.19 31.05 8.41C31.05 10.82 34.49 10.09 34.49 11.38C34.49 11.87 34.08 12.21 33.26 12.21C32.61 12.21 32.01 11.97 31.53 11.35Z"></path></g><defs data-v-fde0c5aa=""><!----></defs><g data-v-fde0c5aa="" id="02f8d88f-1dc6-40c3-9920-94f052cd1e1d" stroke="none" fill="#3563E9" transform="matrix(0.37573713353782917,0,0,0.37573713353782917,2.635364990620432,-6.2868011356090925)"><path d="M79.324 58.95L42.811 71.576c-.676 9.822-10.365 15.626-11.567 15.588 2.418.992 4.53 2.181 42.378-10.235 10.449-3.427 5.702-17.979 5.702-17.979zM77.97 14.884c-1.555-1.766-2.944-2.625-4.252-2.625-.824 0-1.413.354-1.606.47-.444.264-1.111.917-1.049 2.445l-4.564 3.739c-.679-.228-1.331-.344-1.941-.344-1.939 0-3.079 1.159-3.433 1.822-1.071 1.902-.587 4.305 1.356 6.837L51.718 40.312l14.211-9.817c1.126.745 2.595 1.448 4.117 1.448a4.36 4.36 0 0 0 2.47-.738c1.814-1.238 1.462-3.695 1.146-4.909l3.825-4.761c.163.021.34.035.521.035.87 0 1.385-.345 1.659-.633 1.748-1.824.04-4.082-1.697-6.053z"></path><path d="M34.239 82.002c-8.63-1.46-10.697-16.815-6.144-45.646l31.137-6.921 1.749-2.128-.231-.349c-.783-1.174-1.3-2.358-1.537-3.519l-.114-.564-36.63 8.142-.365 2.128c-1.349 7.873-7.386 47.443 6.178 53.268.166.072.331.131.495.189l.335.125.133-.013c1.087-.106 5.612-3.086 5.561-4.122l-.117-.515-.45-.075zM67.98 32.879l-.688-.23-2.256 29.316 6.63-2.291 2.112-27.466-.899.462c-1.449.745-3.082.823-4.899.209z"></path></g><!----></svg>