<svg width="758" height="639" viewBox="0 0 758 639" fill="none" xmlns="http://www.w3.org/2000/svg">
<g clip-path="url(#clip0_1162_114576)">
<path d="M446.9 389.65C450.75 392.2 454 395.45 456.6 399.25C457.15 400.05 458.45 399.3 457.9 398.5C455.15 394.5 451.75 391.1 447.7 388.4C446.85 387.8 446.1 389.1 446.9 389.65Z" fill="#030235"/>
<path d="M456.65 392.4C457.45 393.35 458.2 394.35 459 395.3C459.6 396.05 460.65 395 460.05 394.25C459.25 393.3 458.5 392.3 457.7 391.35C457.1 390.6 456.05 391.7 456.65 392.4Z" fill="#030235"/>
<path d="M452.05 378.4C455.5 381.6 458.35 385.25 460.55 389.4C461 390.25 462.3 389.5 461.85 388.65C459.6 384.4 456.65 380.6 453.1 377.35C452.4 376.65 451.35 377.75 452.05 378.4Z" fill="#030235"/>
<path d="M106.35 434.7C107.45 445.55 109.35 456.25 112 466.85C112.25 467.8 113.7 467.4 113.45 466.45C110.85 456 108.95 445.4 107.85 434.7C107.75 433.75 106.25 433.75 106.35 434.7Z" fill="#596476" fill-opacity="0.16"/>
<path d="M112.3 467.35C122.15 469.9 132.4 469.9 142.25 467.35C143.2 467.1 142.8 465.65 141.85 465.9C132.25 468.4 122.3 468.4 112.7 465.9C111.8 465.65 111.4 467.1 112.3 467.35Z" fill="#596476" fill-opacity="0.16"/>
<path d="M143.4 465.85C144.05 455.2 144.9 444.55 145.9 433.9C146 432.95 144.5 432.95 144.4 433.9C143.4 444.55 142.55 455.2 141.9 465.85C141.85 466.8 143.35 466.8 143.4 465.85Z" fill="#596476" fill-opacity="0.16"/>
<path d="M107.2 435.5C119.65 438.05 132.45 437.95 144.9 435.15C145.85 434.95 145.45 433.5 144.5 433.7C132.35 436.4 119.8 436.55 107.6 434.05C106.65 433.85 106.25 435.3 107.2 435.5Z" fill="#596476" fill-opacity="0.16"/>
<path d="M107.05 439.101C107.45 441.151 110.05 441.051 111.65 441.201C115.7 441.551 119.8 441.651 123.85 441.551C127.75 441.451 131.65 441.151 135.55 440.701C138.65 440.301 141.65 439.901 144.4 438.351C145.25 437.901 144.5 436.601 143.65 437.051C138.7 439.801 131.85 439.701 126.3 439.951C123.55 440.051 120.75 440.101 118 440.051C116.55 440.001 108.8 440.351 108.5 438.701C108.3 437.751 106.9 438.151 107.05 439.101Z" fill="#596476" fill-opacity="0.16"/>
<path d="M109.9 456.45C112.3 460.7 115.35 464.45 119 467.7C119.7 468.35 120.8 467.3 120.05 466.65C116.45 463.5 113.5 459.85 111.2 455.7C110.75 454.85 109.45 455.6 109.9 456.45Z" fill="#596476" fill-opacity="0.16"/>
<path d="M107.95 444.9C113.05 453.5 119.25 461.4 126.35 468.5C127.05 469.2 128.1 468.1 127.4 467.45C120.4 460.45 114.3 452.65 109.25 444.15C108.75 443.35 107.45 444.1 107.95 444.9Z" fill="#596476" fill-opacity="0.16"/>
<path d="M116.3 441.3C121.6 450.75 127.75 459.7 134.7 468.05C135.3 468.8 136.35 467.75 135.75 467C128.9 458.75 122.8 449.9 117.6 440.55C117.15 439.7 115.85 440.45 116.3 441.3Z" fill="#596476" fill-opacity="0.16"/>
<path d="M125.85 441.65C131 449.35 136.2 457 141.45 464.65C142 465.45 143.3 464.7 142.75 463.9C137.5 456.25 132.3 448.6 127.15 440.9C126.6 440.1 125.3 440.85 125.85 441.65Z" fill="#596476" fill-opacity="0.16"/>
<path d="M133.85 441.2C136.45 445.4 139.25 449.5 142.15 453.5C142.7 454.25 144 453.5 143.45 452.75C140.55 448.75 137.75 444.65 135.15 440.45C134.65 439.65 133.35 440.4 133.85 441.2Z" fill="#596476" fill-opacity="0.16"/>
<path d="M90.6001 390.7C91.2001 394.15 91.8001 397.65 92.4501 401.1C92.6501 402.05 92.8001 403.05 93.6001 403.65C94.1501 404.1 95.9501 404.05 96.3001 404.55C96.3501 404.25 96.4001 403.95 96.4001 403.65C95.6501 404.4 94.9001 405.15 94.1001 405.85C93.9001 406.05 93.8501 406.35 93.9001 406.6C94.3501 407.95 94.6501 409.95 95.5501 411.1C96.0001 411.7 96.8001 411.6 97.1501 411.95C97.4501 412.25 97.3501 412.05 97.2001 412.95C97.1001 413.7 97.1001 414.5 97.2001 415.3C97.3501 416.5 97.7001 417.65 98.1501 418.75C100.75 425.05 105.8 430.15 110.65 434.85C111.35 435.5 112.4 434.45 111.7 433.8C108.6 430.8 105.5 427.7 102.95 424.2C100.45 420.75 97.5001 416.1 99.0501 411.7C99.1501 411.45 99.0501 411.1 98.8501 410.95C97.9001 410.2 96.9501 410.5 96.3001 409.3C95.0501 407.05 95.7501 406.3 97.3501 404.75C97.6001 404.55 97.6501 404.1 97.4501 403.85C97.0501 403.25 96.7501 403.05 96.1001 402.85C95.7001 402.7 95.1001 402.85 94.7001 402.65C93.8501 402.2 93.8501 401.1 93.7001 400.3C93.1001 397 92.5001 393.65 91.9501 390.35C91.8501 389.35 90.4001 389.75 90.6001 390.7Z" fill="#596476" fill-opacity="0.16"/>
<path d="M91.6999 390.5C111.2 397 124.55 415.2 124.95 435.8C124.95 436.75 126.45 436.75 126.45 435.8C126.05 414.55 112.25 395.8 92.0999 389.05C91.1999 388.75 90.7999 390.2 91.6999 390.5Z" fill="#596476" fill-opacity="0.16"/>
<path d="M121.65 415.3C126.5 401.85 133.65 388.85 145.1 380C145.85 379.4 145.1 378.1 144.35 378.7C132.55 387.85 125.2 401.05 120.2 414.9C119.9 415.8 121.35 416.2 121.65 415.3Z" fill="#596476" fill-opacity="0.16"/>
<path d="M143.8 379.7C144.15 384.3 144.55 388.9 144.9 393.55C145 394.5 146.5 394.5 146.4 393.55C146.05 388.95 145.65 384.35 145.3 379.7C145.25 378.75 143.75 378.75 143.8 379.7Z" fill="#596476" fill-opacity="0.16"/>
<path d="M145.55 393.05C144.9 393.2 144.25 393.35 143.65 393.55C142.7 393.8 143.1 395.25 144.05 395C144.7 394.85 145.35 394.7 145.95 394.5C146.9 394.25 146.5 392.85 145.55 393.05Z" fill="#596476" fill-opacity="0.16"/>
<path d="M142.9 394.9C143.1 395.85 143.9 396.45 144.8 396.55C145.2 396.6 145.55 396.2 145.55 395.8C145.55 395.35 145.2 395.1 144.8 395.05C144.95 395.05 144.8 395.05 144.75 395.05C144.7 395.05 144.6 395 144.7 395.05C144.65 395 144.6 395 144.55 394.95C144.45 394.9 144.65 395.05 144.5 394.9C144.45 394.85 144.45 394.85 144.4 394.8C144.5 394.9 144.4 394.8 144.4 394.75C144.35 394.7 144.35 394.6 144.35 394.7C144.35 394.65 144.3 394.55 144.3 394.5C144.2 394.1 143.75 393.85 143.4 394C143 394.1 142.8 394.5 142.9 394.9Z" fill="#596476" fill-opacity="0.16"/>
<path d="M144.05 396C144.1 398.85 144 401.65 143.7 404.45C143.6 405.35 143.75 407.45 143.15 408.15C143.1 408.2 142.2 408.35 142 408.5C141.25 409.1 142.3 410.15 143.05 409.55C143.3 409.35 143.9 409.55 144.3 409.1C144.9 408.5 144.8 407.1 144.9 406.4C145.35 402.95 145.55 399.45 145.5 395.95C145.55 395.05 144.05 395.05 144.05 396Z" fill="#596476" fill-opacity="0.16"/>
<path d="M141.4 409.8C143 411.7 142.55 414.85 142.4 417.15C142.2 419.8 141.75 422.25 140.45 424.55C138.6 427.95 136 430.8 134.65 434.5C134.3 435.4 135.75 435.8 136.1 434.9C137.9 430.05 142.05 426.45 143.3 421.35C144.2 417.7 145.05 411.85 142.45 408.75C141.85 408.05 140.8 409.1 141.4 409.8Z" fill="#596476" fill-opacity="0.16"/>
<path d="M129.6 435.2C131 421 134.75 407.15 140.75 394.25C141.15 393.4 139.85 392.6 139.45 393.5C133.35 406.7 129.5 420.75 128.1 435.25C128 436.2 129.5 436.15 129.6 435.2Z" fill="#596476" fill-opacity="0.16"/>
<path d="M100.1 398.85C108.85 409.85 115.25 422.5 119 436C119.25 436.95 120.7 436.55 120.45 435.6C116.6 421.8 110.05 409 101.15 397.8C100.55 397.05 99.5001 398.1 100.1 398.85Z" fill="#596476" fill-opacity="0.16"/>
<path d="M101.05 417.3C105.25 417.05 109.15 418.05 112.7 420.25C113.5 420.75 114.3 419.45 113.45 418.95C109.7 416.65 105.45 415.55 101.05 415.8C100.05 415.85 100.05 417.35 101.05 417.3Z" fill="#596476" fill-opacity="0.16"/>
<path d="M110.2 410.6C109.9 407.85 110.25 405.2 111.3 402.6C111.65 401.7 110.2 401.3 109.85 402.2C108.75 404.9 108.4 407.7 108.7 410.6C108.8 411.55 110.3 411.55 110.2 410.6Z" fill="#596476" fill-opacity="0.16"/>
<path d="M126.4 402.3C128.05 406.35 130.45 410.65 131.05 414.95C131.2 415.9 132.65 415.5 132.5 414.55C131.85 410.2 129.45 405.9 127.85 401.9C127.5 401 126.05 401.4 126.4 402.3Z" fill="#596476" fill-opacity="0.16"/>
<path d="M135.6 407.05C137.05 405.4 138.45 403.45 140.3 402.2C141.85 401.15 143.55 400.45 144.75 399C145.35 398.25 144.3 397.2 143.7 397.95C142.4 399.5 140.5 400.15 138.95 401.35C137.25 402.65 135.95 404.4 134.55 406C133.9 406.75 134.95 407.8 135.6 407.05Z" fill="#596476" fill-opacity="0.16"/>
<path d="M136.1 434.7C138.5 434.05 140.95 433.8 143.45 433.95C144.4 434 144.4 432.5 143.45 432.45C140.8 432.3 138.25 432.55 135.7 433.25C134.8 433.5 135.15 434.95 136.1 434.7Z" fill="#596476" fill-opacity="0.16"/>
<path d="M135.9 435.299C138.7 435.549 141.4 435.2 144.1 434.35C145 434.05 144.6 432.6 143.7 432.9C141.15 433.7 138.55 433.999 135.9 433.799C134.95 433.749 134.95 435.249 135.9 435.299Z" fill="#596476" fill-opacity="0.16"/>
<path d="M107.85 435.05C108.5 435.05 109.1 435.05 109.75 435.05C110.7 435.05 110.7 433.55 109.75 433.55C109.1 433.55 108.5 433.55 107.85 433.55C106.9 433.55 106.9 435.05 107.85 435.05Z" fill="#596476" fill-opacity="0.16"/>
<path d="M144.5 447.15C160.35 447.15 176.25 447.15 192.1 447.15C193.05 447.15 193.05 445.65 192.1 445.65C176.25 445.65 160.35 445.65 144.5 445.65C143.55 445.65 143.55 447.15 144.5 447.15Z" fill="#596476" fill-opacity="0.16"/>
<path d="M412.8 437.25C422.25 437.25 431.65 437.25 441.1 437.25C442.05 437.25 442.05 435.75 441.1 435.75C431.65 435.75 422.25 435.75 412.8 435.75C411.85 435.75 411.85 437.25 412.8 437.25Z" fill="#596476" fill-opacity="0.16"/>
<path d="M498.6 438.15C539.35 438.15 580.1 438.15 620.85 438.15C632.45 438.15 644.05 438.15 655.65 438.15C656.6 438.15 656.6 436.65 655.65 436.65C614.9 436.65 574.15 436.65 533.4 436.65C521.8 436.65 510.2 436.65 498.6 436.65C497.65 436.65 497.65 438.15 498.6 438.15Z" fill="#596476" fill-opacity="0.16"/>
<path d="M438.25 274C434.45 281.85 430.35 289.55 426 297.1C425.8 297.5 425.95 298.15 426.45 298.2C447.9 301.45 467.1 312.1 485.6 322.85C486.45 323.35 487.2 322.05 486.35 321.55C467.7 310.75 448.4 300.05 426.8 296.75C426.95 297.1 427.1 297.5 427.25 297.85C431.65 290.3 435.7 282.6 439.5 274.75C439.95 273.9 438.7 273.1 438.25 274Z" fill="#596476" fill-opacity="0.16"/>
<path d="M441.55 301.25C443.05 296.95 444.55 292.6 446.05 288.3C446.7 286.5 447.15 284.5 448 282.75C448.2 281.7 448.85 280.9 449.85 280.3C450.45 280.45 451.05 280.6 451.65 280.75C452.55 281 453.45 281.2 454.3 281.45C456.35 281.95 459.65 281.95 459.3 284.7C459.05 286.65 457.9 288.75 457.25 290.65C455.75 294.9 454.3 299.15 452.8 303.4C452.5 304.3 453.95 304.7 454.25 303.8C456.2 298.2 458.15 292.55 460.1 286.95C460.55 285.65 461.8 283.45 460.8 282.05C459.7 280.55 456.4 280.45 454.7 280C453.05 279.6 450.15 278.1 448.45 278.9C447 279.55 446.7 282.05 446.25 283.3C444.2 289.15 442.15 295.05 440.1 300.9C439.8 301.75 441.25 302.15 441.55 301.25Z" fill="#596476" fill-opacity="0.16"/>
<path d="M460.85 306.6C464.05 299.85 467.3 293.05 470.5 286.3C472.1 282.9 473.7 279.55 475.35 276.15C476.1 274.6 476.7 272.75 477.65 271.3C478.45 270.05 478.65 269.75 480.05 270.3C480.8 270.6 481.7 271.35 482.35 271.8C483.2 272.4 484.55 273.05 485.15 273.85C485.9 274.8 485.6 275.8 485.15 277C484.55 278.6 483.65 280.15 482.9 281.7C481.25 285.1 479.6 288.5 477.85 291.9C474.55 298.35 471.1 304.75 467.55 311.1C467.05 311.95 468.35 312.7 468.85 311.85C473.2 304.15 477.35 296.35 481.25 288.45C483.2 284.55 485.35 280.55 487 276.5C488.15 273.55 485.65 272.35 483.45 270.8C481.7 269.6 478.95 266.85 477.05 269.1C475.85 270.5 475.2 272.85 474.4 274.55C473.4 276.6 472.45 278.65 471.45 280.75C467.45 289.15 463.45 297.55 459.5 305.95C459.15 306.7 460.45 307.5 460.85 306.6Z" fill="#596476" fill-opacity="0.16"/>
<path d="M477.45 317C481.75 310.25 486.6 303.85 491.95 297.95C491.65 298 491.35 298.05 491.05 298.05C492.95 299.35 494.8 300.6 496.7 301.9C496.6 301.55 496.5 301.2 496.45 300.85C492.2 307.5 487.95 314.1 483.7 320.75C483.2 321.55 484.45 322.3 485 321.5C489.25 314.85 493.5 308.25 497.75 301.6C498 301.25 497.8 300.8 497.5 300.55C495.6 299.25 493.75 298 491.85 296.7C491.6 296.5 491.15 296.6 490.95 296.8C485.5 302.85 480.55 309.3 476.2 316.15C475.65 317.1 476.95 317.85 477.45 317Z" fill="#596476" fill-opacity="0.16"/>
<path d="M537.1 269.45C532.1 267.55 528.95 262.55 529.85 257.2C530.75 251.75 536.1 246.9 541.6 250.15C545.4 252.4 547.35 257.5 545.9 261.65C544.4 266.1 539.5 268.75 534.95 268.05C534 267.9 533.6 269.35 534.55 269.5C539.9 270.3 545.55 267.35 547.35 262.05C549.15 256.75 546.25 250.35 541.05 248.2C534.95 245.7 529.4 250.95 528.35 256.8C527.25 263 530.9 268.7 536.65 270.9C537.6 271.25 538 269.8 537.1 269.45Z" fill="#596476" fill-opacity="0.16"/>
<path d="M547.35 268.5C537.4 268.2 541.15 252.25 549.95 252.85C558.75 253.5 555.15 271.45 545.5 268.15C544.6 267.85 544.2 269.3 545.1 269.6C556.25 273.4 561.25 253.1 550.6 251.4C545.4 250.55 540.7 255.45 539.9 260.3C539.1 265.1 542.35 269.8 547.35 269.95C548.3 270.05 548.3 268.55 547.35 268.5Z" fill="#596476" fill-opacity="0.16"/>
<path d="M539.9 223.25C539.05 222.35 538.65 220.9 539.3 219.8C539.95 218.75 541.55 218.25 542.55 219.05C543.45 219.75 543.65 221.25 542.8 222C541.8 222.9 540.2 222.45 539.25 221.7C538.5 221.1 537.45 222.15 538.2 222.75C539.75 223.95 542.15 224.55 543.8 223.1C545.3 221.75 545.15 219.25 543.65 217.95C542.1 216.6 539.65 217 538.35 218.5C536.9 220.2 537.3 222.75 538.8 224.3C539.5 225 540.55 223.95 539.9 223.25Z" fill="#596476" fill-opacity="0.16"/>
<path d="M394.8 260.9C393.4 252.4 398.35 242.15 407.95 242.25C412.85 242.3 417.6 244.3 422.55 243.6C426.05 243.1 429.05 241.1 431.15 238.35C433.25 235.6 434.45 232.15 434.65 228.7C434.9 223.6 432.95 218.4 434.35 213.35C435.05 210.8 436.55 208.45 439.1 207.5C441.55 206.65 444.2 207.15 446.75 207.05C450.45 206.9 453.35 205.3 455.2 202.05C457.8 197.5 457.2 192.05 459 187.25C461.15 181.45 467.2 176.5 473.6 179.35C474.45 179.75 475.25 178.45 474.35 178.05C465.65 174.15 458.4 182 456.7 189.9C455.6 195.05 455.8 203.05 449.65 205.1C445.35 206.55 440.5 204.3 436.55 207.25C433.3 209.65 432.35 214.05 432.4 217.9C432.55 223.55 434.3 229.05 431.8 234.45C429.5 239.55 424.95 242.6 419.3 242.25C414.3 241.95 409.35 239.9 404.3 241.2C395.75 243.35 392.1 253.45 393.45 261.35C393.55 262.2 395 261.8 394.8 260.9Z" fill="#596476" fill-opacity="0.16"/>
<path d="M458 225.25C456.15 221.05 458.7 217.05 462.75 215.7C465.7 214.7 468.95 214.65 471.5 212.65C473.5 211.1 474.15 209.15 473.9 206.65C473.65 204.3 473.65 202.45 475.5 200.85C477.05 199.5 479.1 199 481.1 198.9C486.6 198.7 494.15 201.5 498.15 196.15C500 193.65 499.45 190.55 500.3 187.75C501.45 183.85 505.2 181.45 509.2 181.65C510.15 181.7 510.15 180.2 509.2 180.15C506.15 180 503.2 181.15 501.1 183.35C498.5 186.1 498.85 189.2 498.05 192.65C495.9 202.1 482.75 195.45 476.55 198.4C474.25 199.5 472.4 201.45 472.2 204.05C471.95 207.1 473.35 209.6 470.25 211.7C468.6 212.8 466.7 213.15 464.8 213.6C461.65 214.35 458.55 215.3 456.95 218.35C455.65 220.75 455.65 223.5 456.75 225.95C457.1 226.9 458.35 226.1 458 225.25Z" fill="#596476" fill-opacity="0.16"/>
<path d="M547.1 158.651C546.9 158.201 546.7 157.701 546.55 157.201C547.2 156.451 547.8 155.701 548.45 154.951C548.65 154.901 549.55 155.501 549.85 155.501C550.6 155.601 551.25 155.401 551.85 154.951C553.7 153.501 553.05 151.201 553.6 149.251C554.5 145.901 558.45 148.201 560.25 145.701C562.05 143.251 561.4 138.051 566.2 139.451C567.15 139.701 567.55 138.251 566.6 138.001C563.85 137.201 561.35 138.501 560.35 141.151C560.05 141.901 559.95 142.751 559.65 143.501C559 145.251 558.3 145.501 556.4 145.601C555 145.701 553.9 145.601 552.95 146.801C552.15 147.851 552.15 149.201 552 150.451C551.85 152.301 552 153.851 549.25 153.651C548.7 153.601 548.25 153.101 547.65 153.101C544.35 153.051 544.9 157.101 545.7 159.051C546 159.951 547.5 159.551 547.1 158.651Z" fill="#596476" fill-opacity="0.16"/>
<path d="M556.5 162.8C555.7 161.75 554.35 158.7 556.7 157.9C557.55 157.6 558.65 157.95 559.55 157.95C560.35 157.95 561.05 157.95 561.7 157.4C563.7 155.8 562.25 152.95 563.3 150.95C565 147.7 568.4 150.25 570.8 148.55C572.5 147.35 572.95 145.05 573.25 143.15C573.4 142.2 571.95 141.8 571.8 142.75C571.45 145 571.05 147.5 568.25 147.75C566.8 147.9 565.7 147.4 564.35 148.05C562.15 149.1 561.45 151.05 561.4 153.3C561.35 155.2 561.8 156.15 558.6 156.3C558.2 156.3 557.8 156.2 557.4 156.2C556.25 156.3 555.25 156.9 554.6 157.85C553.2 159.85 554 162.15 555.4 163.9C556.05 164.65 557.1 163.55 556.5 162.8Z" fill="#596476" fill-opacity="0.16"/>
<path d="M131.4 189.9C135.55 184.9 141.45 180.8 148.25 181.5C155.65 182.25 159.3 188.15 160 195.05C161.2 206.5 158.4 220.2 166.15 229.95C169.2 233.8 173.75 235.85 178.65 234.65C184.55 233.25 189.15 228.6 194.4 225.85C200.6 222.6 209.15 220.85 214.75 226.3C218.85 230.3 219.75 236.4 221.1 241.7C222.35 246.5 224.5 251.8 228.8 254.65C231.4 256.35 234.25 256.5 237.25 256.3C240.6 256.05 247.45 255.85 246.75 261.1C246.65 262.05 248.15 262.05 248.25 261.1C248.5 259.05 247.55 257.4 245.9 256.2C243.3 254.3 240.3 254.6 237.25 254.8C233.8 255.05 230.85 254.75 228.2 252.3C225.8 250.1 224.35 247 223.3 243.95C221.55 238.7 221.05 232.95 218.05 228.15C215.1 223.4 210 221.1 204.5 221.3C197.55 221.55 191.7 225.55 186.15 229.25C183.5 231 180.65 232.85 177.4 233.4C173.5 234.05 170.05 232.35 167.55 229.45C162.85 223.95 162.1 216.1 161.85 209.2C161.6 202.75 162.45 195.75 160.3 189.5C158.35 183.8 153.4 180.25 147.45 179.95C140.55 179.6 134.5 183.75 130.25 188.85C129.7 189.6 130.75 190.65 131.4 189.9Z" fill="#596476" fill-opacity="0.16"/>
<path d="M106.15 267.05C113.95 280.05 120.9 293.5 127.05 307.35C127.45 308.25 128.75 307.45 128.35 306.6C122.2 292.75 115.2 279.3 107.45 266.3C106.95 265.45 105.65 266.2 106.15 267.05Z" fill="#596476" fill-opacity="0.16"/>
<path d="M107.1 266.45C119.25 258.9 131.75 251.85 144.6 245.45C145.45 245 144.7 243.7 143.85 244.15C131.05 250.55 118.55 257.6 106.35 265.15C105.5 265.7 106.25 267 107.1 266.45Z" fill="#596476" fill-opacity="0.16"/>
<path d="M143.7 244.8C150.05 258.15 156.75 271.3 163.85 284.25C164.3 285.1 165.6 284.35 165.15 283.5C158.05 270.55 151.3 257.4 145 244.05C144.55 243.15 143.3 243.9 143.7 244.8Z" fill="#596476" fill-opacity="0.16"/>
<path d="M128.75 307.65C140.7 300.45 152.5 293.05 164.2 285.45C165 284.95 164.25 283.65 163.45 284.15C151.75 291.75 139.95 299.15 128 306.35C127.2 306.85 127.95 308.15 128.75 307.65Z" fill="#596476" fill-opacity="0.16"/>
<path d="M127.8 262.05C127.5 271.65 128.05 281.2 129.45 290.7C129.6 291.65 131.05 291.25 130.9 290.3C129.5 280.95 129 271.5 129.3 262.05C129.35 261.1 127.85 261.1 127.8 262.05Z" fill="#596476" fill-opacity="0.16"/>
<path d="M127.85 261.55C134.8 267 141.75 272.35 148.8 277.65C149.55 278.25 150.3 276.95 149.55 276.35C142.6 271.15 135.7 265.85 128.9 260.5C128.15 259.9 127.1 260.95 127.85 261.55Z" fill="#596476" fill-opacity="0.16"/>
<path d="M131 291C136.75 285.85 144.25 283.1 149.7 277.55C150.4 276.85 149.3 275.8 148.65 276.5C143.2 282 135.75 284.8 129.95 289.95C129.2 290.55 130.3 291.6 131 291Z" fill="#596476" fill-opacity="0.16"/>
<path d="M108.15 274.9C109.75 274.1 111.35 273.35 112.95 272.55C113.8 272.15 113.05 270.85 112.2 271.25C110.6 272.05 109 272.8 107.4 273.6C106.55 274.05 107.3 275.3 108.15 274.9Z" fill="#596476" fill-opacity="0.16"/>
<path d="M113.3 283.401C114.65 282.501 116.1 281.751 117.6 281.101C118.5 280.751 118.1 279.301 117.2 279.651C115.55 280.351 114 281.151 112.5 282.101C111.75 282.651 112.5 283.951 113.3 283.401Z" fill="#596476" fill-opacity="0.16"/>
<path d="M118.95 293.2C120.35 292.5 121.75 291.8 123.15 291.15C124 290.7 123.25 289.45 122.4 289.85C121 290.55 119.6 291.25 118.2 291.9C117.35 292.3 118.1 293.6 118.95 293.2Z" fill="#596476" fill-opacity="0.16"/>
<path d="M121.85 303C123.4 301.65 125 300.5 126.8 299.5C127.65 299 126.9 297.75 126.05 298.2C124.2 299.25 122.45 300.5 120.8 301.95C120.05 302.6 121.1 303.65 121.85 303Z" fill="#596476" fill-opacity="0.16"/>
<path d="M146.55 254.65C147.7 253.85 148.9 253.3 150.25 252.95C151.2 252.7 150.8 251.3 149.85 251.5C148.4 251.85 147 252.45 145.75 253.35C145 253.9 145.75 255.2 146.55 254.65Z" fill="#596476" fill-opacity="0.16"/>
<path d="M151 263.2C152.6 262.2 154.2 261.2 155.75 260.15C156.55 259.65 155.8 258.35 155 258.85C153.4 259.85 151.8 260.85 150.25 261.9C149.4 262.45 150.15 263.75 151 263.2Z" fill="#596476" fill-opacity="0.16"/>
<path d="M156.1 273.451C157.8 272.701 159.55 271.951 161.25 271.2C162.15 270.8 161.35 269.5 160.5 269.9C158.8 270.65 157.05 271.4 155.35 272.15C154.45 272.55 155.25 273.851 156.1 273.451Z" fill="#596476" fill-opacity="0.16"/>
<path d="M159.75 280.15C161.1 278.85 162.6 277.75 164.25 276.8C165.1 276.35 164.35 275.05 163.5 275.5C161.75 276.5 160.15 277.65 158.7 279.05C158 279.75 159.05 280.8 159.75 280.15Z" fill="#596476" fill-opacity="0.16"/>
<path d="M133 301.05C134.25 302.9 135.3 304.85 136.1 306.9C136.45 307.8 137.9 307.4 137.55 306.5C136.7 304.3 135.65 302.2 134.3 300.25C133.75 299.5 132.45 300.25 133 301.05Z" fill="#596476" fill-opacity="0.16"/>
<path d="M140.65 296.9C141.6 298.6 142.5 300.25 143.45 301.95C143.9 302.8 145.2 302.05 144.75 301.2C143.8 299.5 142.9 297.85 141.95 296.15C141.5 295.3 140.2 296.05 140.65 296.9Z" fill="#596476" fill-opacity="0.16"/>
<path d="M149.5 290.55C150.5 292.35 151.5 294.15 152.5 295.95C152.95 296.8 154.25 296.05 153.8 295.2C152.8 293.4 151.8 291.6 150.8 289.8C150.35 288.95 149.05 289.7 149.5 290.55Z" fill="#596476" fill-opacity="0.16"/>
<path d="M157.45 285.8C158.25 287.7 159.05 289.6 159.9 291.45C160.3 292.35 161.55 291.55 161.2 290.7C160.4 288.8 159.6 286.9 158.75 285.05C158.35 284.2 157.05 284.95 157.45 285.8Z" fill="#596476" fill-opacity="0.16"/>
<path d="M112.1 258.75C113.05 260.3 113.95 261.85 114.9 263.35C115.4 264.2 116.7 263.4 116.2 262.6C115.25 261.05 114.35 259.5 113.4 258C112.9 257.2 111.6 257.95 112.1 258.75Z" fill="#596476" fill-opacity="0.16"/>
<path d="M120.7 253.75C121.6 255.75 122.5 257.75 123.4 259.75C123.8 260.65 125.1 259.85 124.7 259C123.8 257 122.9 255 122 253C121.55 252.1 120.3 252.85 120.7 253.75Z" fill="#596476" fill-opacity="0.16"/>
<path d="M128.45 248.95C129.8 250.75 130.85 252.7 131.55 254.8C131.85 255.7 133.3 255.3 133 254.4C132.25 252.15 131.2 250.05 129.75 248.2C129.2 247.45 127.9 248.15 128.45 248.95Z" fill="#596476" fill-opacity="0.16"/>
<path d="M136.8 245.1C137.85 246.7 138.85 248.25 139.9 249.85C140.4 250.65 141.7 249.9 141.2 249.1C140.15 247.5 139.15 245.95 138.1 244.35C137.55 243.55 136.25 244.3 136.8 245.1Z" fill="#596476" fill-opacity="0.16"/>
<path d="M214.55 145.95C209.7 144.45 209.45 139.3 211.75 135.45C214 131.7 218.35 130.7 221.75 133.8C224.55 136.4 224.8 140.85 222.2 143.7C219.6 146.6 215.35 146.55 212.35 144.35C211.6 143.75 210.85 145.05 211.6 145.65C215.4 148.45 220.95 148 223.8 144.05C226.75 140.05 225.7 134.45 221.55 131.75C211.55 125.3 202.95 143.9 214.15 147.4C215.1 147.7 215.5 146.25 214.55 145.95Z" fill="#596476" fill-opacity="0.16"/>
<path d="M222.6 147.25C218.85 148.4 217.95 143.9 219.6 141.5C220.95 139.55 223.6 138.4 226 139.05C228.3 139.65 229.95 142 229.35 144.35C228.6 147.3 225.5 148.35 222.75 147.9C221.8 147.75 221.4 149.2 222.35 149.35C226.05 150 230.05 148.4 230.85 144.4C231.55 140.95 228.85 137.8 225.5 137.4C221.8 136.95 217.75 139.65 217.25 143.45C216.8 146.75 219.8 149.7 223.1 148.65C223.95 148.4 223.55 146.95 222.6 147.25Z" fill="#596476" fill-opacity="0.16"/>
<path d="M190.7 179.8C189.5 182.25 191.2 184.7 193.7 185.35C195.6 185.85 197.6 185.4 199.55 185.5C201.65 185.6 203.75 186.1 205.65 186.95C209.85 188.85 212.55 192.3 212.7 196.95C212.85 200.85 211.7 204.9 213.4 208.6C217 216.4 226.9 210.45 232 215.5C236.25 219.75 234.5 227.5 240.2 230.75C241.05 231.25 241.8 229.95 240.95 229.45C235.85 226.55 237.05 219 233.45 214.8C231.55 212.6 228.8 212 226 211.8C222.6 211.6 218.2 212.3 215.7 209.4C212.8 206 214.35 200.9 214.2 196.9C214.1 193.75 213.05 190.9 210.85 188.65C208.9 186.7 206.35 185.35 203.7 184.65C202.35 184.3 200.95 184.05 199.55 184C197.75 183.9 189.95 184.8 192.05 180.55C192.45 179.7 191.15 178.95 190.7 179.8Z" fill="#596476" fill-opacity="0.16"/>
<path d="M73.8 449.7C82.85 449.7 91.85 449.7 100.9 449.7C101.85 449.7 101.85 448.2 100.9 448.2C91.85 448.2 82.85 448.2 73.8 448.2C72.8 448.2 72.8 449.7 73.8 449.7Z" fill="#596476" fill-opacity="0.16"/>
<path d="M88.4 483.6C105.8 483.6 123.15 483.6 140.55 483.6C141.5 483.6 141.5 482.1 140.55 482.1C123.15 482.1 105.8 482.1 88.4 482.1C87.4 482.1 87.4 483.6 88.4 483.6Z" fill="#596476" fill-opacity="0.16"/>
<path d="M138.45 474.2C154.6 474.2 170.8 474.2 186.95 474.2C187.9 474.2 187.9 472.7 186.95 472.7C170.8 472.7 154.6 472.7 138.45 472.7C137.45 472.7 137.45 474.2 138.45 474.2Z" fill="#596476" fill-opacity="0.16"/>
<path d="M407.4 471.6C415.55 469.6 423.75 469.4 432.05 470.7C435.55 471.25 439.1 471.8 442.65 471.5C446.1 471.2 449.45 470.15 452.8 469.25C456.6 468.2 460.4 467.4 464.4 467.7C468.5 468 472.45 469.15 476.45 470.05C479.9 470.85 483.4 471.4 486.95 471.35C490.7 471.25 494.4 470.6 498.05 470.05C508.05 468.45 517.45 469.45 527.35 471.1C528.3 471.25 528.7 469.8 527.75 469.65C519.75 468.35 511.7 467 503.55 467.8C495.05 468.65 487.15 470.75 478.55 469C471.35 467.55 464.5 465.3 457.1 466.7C453.15 467.45 449.4 468.85 445.45 469.6C441.05 470.45 436.8 469.95 432.4 469.25C423.85 467.95 415.4 468.05 406.95 470.15C406.1 470.4 406.5 471.85 407.4 471.6Z" fill="#596476" fill-opacity="0.16"/>
<path d="M484.2 456.4C499.9 455.55 515.6 454.7 531.3 453.9C539.05 453.5 546.55 453.65 554.25 454.7C557.7 455.15 561 455.25 564.45 454.85C568.3 454.4 572.3 453.8 575.9 455.65C576.75 456.1 577.5 454.8 576.65 454.35C570.55 451.25 563.5 454.15 556.95 453.55C553.05 453.2 549.25 452.45 545.35 452.25C541.3 452.05 537.25 452.15 533.2 452.35C516.85 453.1 500.5 454.1 484.15 454.95C483.25 454.95 483.25 456.45 484.2 456.4Z" fill="#596476" fill-opacity="0.16"/>
<path d="M176.75 499.35C184.15 500.05 191.6 500.75 199 499.9C202.45 499.5 205.75 498.75 209.1 497.75C213.45 496.45 217.35 496.1 221.85 496.9C225.3 497.5 228.7 498.35 232.15 498.65C235.8 498.95 239.45 498.75 243.1 498.4C250.75 497.65 258.4 496.35 266 498.05C266.95 498.25 267.35 496.8 266.4 496.6C259.1 495 251.8 496.05 244.45 496.8C240.8 497.15 237.15 497.5 233.5 497.3C229.35 497.1 225.35 496 221.3 495.35C217.9 494.8 214.65 494.8 211.3 495.6C207.7 496.5 204.3 497.7 200.6 498.25C192.7 499.4 184.65 498.6 176.75 497.9C175.75 497.75 175.8 499.25 176.75 499.35Z" fill="#596476" fill-opacity="0.16"/>
<path d="M255.85 95.9001C253.9 94.5501 251.25 92.4001 252.05 89.7001C252.9 86.9001 255 88.2501 256.95 87.6001C259.55 86.7501 259.4 83.6001 258.65 81.5501C257.9 79.5501 256.3 74.7001 260.45 76.3501C261.4 76.7501 262.1 77.4001 263.2 77.0501C264.2 76.7501 264.7 75.8501 264.95 74.9001C265.15 74.0501 265 73.1501 264.95 72.2501C264.85 71.6501 264.8 71.0001 264.8 70.4001C264.6 68.9501 265.5 68.3501 267.4 68.6001C267.45 69.5501 268.95 69.5501 268.9 68.6001C268.8 67.2001 267.75 66.2001 266.25 66.2501C264.5 66.3001 263.55 68.0001 263.35 69.6001C263.2 70.7001 264.1 73.2501 263.6 74.1501C263 74.5501 262.4 75.0001 261.75 75.4001C261.5 75.2501 261.25 75.1001 261 74.9501C260.55 74.8001 260.2 74.5001 259.75 74.4001C258.2 74.0501 256.95 75.0001 256.4 76.4001C255.45 78.8001 257.15 80.8001 257.65 83.0501C258.3 86.1501 255.95 85.8001 253.9 86.1501C253 86.3001 252.25 86.7501 251.65 87.4001C248.5 91.0501 252.15 95.1001 255.15 97.2001C255.9 97.7501 256.65 96.4501 255.85 95.9001Z" fill="#596476" fill-opacity="0.16"/>
<path d="M265.7 94.5004C264.05 92.6004 262.8 90.0004 266 89.0004C266.8 88.7504 267.7 88.8504 268.45 88.3504C270.1 87.2004 269.4 85.6504 269.1 84.0504C268.95 83.1504 268.6 81.9504 269.15 81.0504C269.55 80.4004 271 80.1504 271.75 80.0004C272.8 79.7504 273.9 79.6004 274.8 79.0004C276.15 78.0504 276.65 76.3504 275.75 74.9004C275.25 74.1004 273.95 74.8504 274.45 75.6504C275.95 78.0504 268.95 78.7004 267.75 80.4504C266.35 82.5004 269.3 86.1004 266.85 87.4004C265.9 87.9004 264.7 87.5504 263.8 88.2004C263.15 88.6504 262.7 89.3504 262.5 90.1004C261.95 92.2504 263.4 94.1004 264.7 95.6004C265.3 96.3004 266.35 95.2504 265.7 94.5004Z" fill="#596476" fill-opacity="0.16"/>
<path d="M206.65 82.6499C205.35 81.7499 205.2 80.1499 205.6 78.7499C205.85 77.7999 207.05 75.1999 208.2 75.0999C210.1 74.8999 211.05 77.2999 211.55 78.6999C212 80.0499 212.15 81.3999 212.2 82.7999C212.2 83.7499 213.7 83.7499 213.7 82.7999C213.65 79.9999 211.8 71.3999 207.2 73.8999C205.45 74.8499 204.15 77.5999 203.95 79.4999C203.75 81.2999 204.45 82.8999 205.9 83.9499C206.65 84.4999 207.4 83.1999 206.65 82.6499Z" fill="#596476" fill-opacity="0.16"/>
<path d="M206.05 83.4501C204.25 83.9001 202.45 84.3501 200.6 84.8001C199.55 85.0501 197.75 85.1501 196.9 85.9501C195.45 87.3001 195.85 91.4501 195.85 93.2001C195.85 93.7001 196.35 94.0501 196.8 93.9001C197.05 93.8501 197.3 93.7501 197.6 93.7001C198.9 93.0001 199.55 93.4501 199.6 94.9501C200.6 95.9501 200.6 96.5501 199.6 96.6501C199 96.9001 198.4 97.0001 197.75 97.0001C197.35 97.0501 197 97.3001 197 97.7501C197.1 100.95 197.35 104.1 197.7 107.3C197.8 108.25 199.3 108.25 199.2 107.3C198.85 104.1 198.6 100.95 198.5 97.7501C198.25 98.0001 198 98.2501 197.75 98.5001C199.85 98.2501 203.2 97.4001 202.75 94.5501C202.25 91.5001 198.55 91.8501 196.45 92.4501C196.75 92.7001 197.1 92.9501 197.4 93.1501C197.4 92.0001 197.4 90.9001 197.5 89.7501C197.65 87.9501 197.55 87.3001 199.2 86.6501C201.45 85.7501 204.1 85.4501 206.45 84.8501C207.4 84.7001 207 83.2501 206.05 83.4501Z" fill="#596476" fill-opacity="0.16"/>
<path d="M213.25 83.8999C215.35 83.7999 217.5 83.7999 219.6 84.0499C221.6 84.2999 221.5 84.5999 221.8 86.3499C222 87.4499 222.05 88.5999 222.15 89.6999C222.55 93.9999 222.85 98.2999 223.1 102.6C223.15 103.55 224.65 103.55 224.6 102.6C224.3 96.7499 224.1 90.7499 223.15 84.9499C222.9 83.4999 222.65 83.0499 221.15 82.7999C218.55 82.2999 215.85 82.2999 213.25 82.4499C212.3 82.4499 212.3 83.9499 213.25 83.8999Z" fill="#596476" fill-opacity="0.16"/>
<path d="M198.8 108.35C201.75 107.85 204.7 107.35 207.6 106.85C210.95 106.3 214.15 106.55 217.5 106.3C219.05 106.15 226.4 105.4 223.7 102.35C223.05 101.65 222 102.7 222.65 103.4C223.05 103.85 216.25 104.85 216.1 104.85C214 104.9 211.9 104.8 209.8 105.05C206 105.5 202.2 106.3 198.4 106.95C197.45 107.05 197.85 108.5 198.8 108.35Z" fill="#596476" fill-opacity="0.16"/>
<path d="M464.4 396.3C464.25 401.55 464.1 406.8 463.95 412.1C470.6 412.55 477.2 412.95 483.85 413.4C483.85 408 483.85 402.6 483.85 397.2C477.35 396.9 470.9 396.6 464.4 396.3Z" fill="white" stroke="#030235" stroke-width="2" stroke-miterlimit="10"/>
<path d="M473.05 454.65C473.95 460.45 474.35 465.25 474.55 468.7C475.2 480.15 474.7 482.8 473.7 484.9C471.25 490.05 466.8 492.2 467.2 492.9C467.5 493.35 469.7 492.85 479.5 487.7C478.9 476.3 478.35 464.95 477.75 453.55C476.2 453.95 474.65 454.3 473.05 454.65Z" fill="white" stroke="#030235" stroke-width="2" stroke-miterlimit="10"/>
<path d="M460.1 417.9C468.6 417.95 477.1 418.05 485.6 418.1C484.65 429.5 483.75 440.85 482.8 452.25C475.4 451.65 467.95 451.1 460.55 450.5C460.35 439.65 460.2 428.8 460.1 417.9Z" fill="white" stroke="#030235" stroke-width="2" stroke-miterlimit="10"/>
<path d="M463.55 454.25C466.25 460.8 467.15 466.45 467.45 470.25C467.9 475.85 468.2 480.15 465.5 483C464.5 484.1 462.85 485.15 459.65 487.3C456.8 489.2 455.45 489.9 455.55 490.1C455.7 490.4 458.45 489.8 470.45 485.55C471.25 481.5 471.9 476.3 471.75 470.2C471.55 463.7 470.5 458.15 469.35 454C467.45 454.1 465.5 454.15 463.55 454.25Z" fill="white" stroke="#030235" stroke-width="2" stroke-miterlimit="10"/>
<path d="M467.9 493.35C469.4 492.1 470.8 490.75 472.15 489.3C473.7 487.6 476 485 478.4 487.25C478.45 486.85 478.5 486.45 478.55 486.05C475 487.8 471.5 489.55 467.95 491.25C467.25 491.6 467.6 492.65 468.35 492.65C471.7 492.7 473.8 486.85 477.25 487.95C478.15 488.25 478.55 486.8 477.65 486.5C476.15 486.05 475 486.45 473.75 487.35C472.3 488.4 470.25 491.15 468.4 491.15C468.55 491.6 468.65 492.1 468.8 492.55C472.35 490.8 475.85 489.05 479.4 487.35C479.85 487.15 479.9 486.5 479.55 486.15C478.2 484.9 475.8 484.45 474.1 485.25C472.85 485.8 472.05 487.25 471.15 488.2C469.8 489.65 468.4 490.95 466.9 492.25C466.1 492.9 467.15 494 467.9 493.35Z" fill="#030235"/>
<path d="M474.05 485.55C475.55 485.6 477 485.9 478.4 486.5C479.25 486.9 480.05 485.6 479.15 485.2C477.5 484.45 475.85 484.05 474.05 484C473.1 484.05 473.1 485.55 474.05 485.55Z" fill="#030235"/>
<path d="M465.85 483.8C467 484.1 468 484.7 468.8 485.6C469.45 486.3 470.5 485.25 469.85 484.55C468.85 483.5 467.6 482.75 466.2 482.4C465.35 482.1 464.95 483.55 465.85 483.8Z" fill="#030235"/>
<path d="M457.75 489.85C459.3 488.7 460.9 487.65 462.55 486.65C463.3 486.2 464.1 485.6 464.9 485.35C466.15 484.9 466.9 485.2 468.05 485.7C468.05 485.25 468.05 484.85 468.05 484.4C466.45 485.1 464.65 485.05 463 485.75C461.4 486.4 459.9 488 458.25 488.3C458.45 488.75 458.65 489.2 458.85 489.65C461.8 488.2 465.1 487.95 468.05 486.5C468.9 486.05 468.15 484.8 467.3 485.2C464.35 486.65 461.05 486.9 458.1 488.35C457.3 488.75 457.9 489.85 458.7 489.7C460.5 489.4 461.95 487.75 463.65 487.1C465.35 486.45 467.2 486.4 468.85 485.7C469.35 485.5 469.35 484.6 468.85 484.4C466.95 483.55 466.1 483.05 464.2 484.05C461.7 485.35 459.35 486.9 457.1 488.55C456.2 489.1 456.95 490.4 457.75 489.85Z" fill="#030235"/>
<path d="M466.3 461.9C467.55 461.45 468.8 461.5 469.95 462.1C470.8 462.55 471.55 461.25 470.7 460.8C469.2 460 467.5 459.85 465.9 460.45C465 460.8 465.4 462.25 466.3 461.9Z" fill="#030235"/>
<path d="M467.55 466.9C468.6 466.8 469.6 467.05 470.4 467.75C471.15 468.35 472.2 467.3 471.45 466.7C470.35 465.8 469 465.3 467.55 465.4C466.6 465.45 466.6 466.95 467.55 466.9Z" fill="#030235"/>
<path d="M468.1 473.15C469.05 473.05 469.95 473.4 470.5 474.2C471 475 472.3 474.25 471.8 473.45C471.05 472.2 469.6 471.45 468.15 471.65C467.75 471.7 467.4 471.95 467.4 472.4C467.35 472.75 467.7 473.2 468.1 473.15Z" fill="#030235"/>
<path d="M474.55 461.55C475.45 461.05 476.6 461.1 477.45 461.8C478.2 462.4 479.25 461.35 478.5 460.75C477.15 459.65 475.35 459.4 473.8 460.25C472.95 460.75 473.7 462.05 474.55 461.55Z" fill="#030235"/>
<path d="M475.4 471C476.2 470.65 477.1 470.8 477.75 471.4C478.45 472.05 479.55 471 478.8 470.35C477.65 469.3 476.05 469.05 474.6 469.75C473.75 470.1 474.55 471.4 475.4 471Z" fill="#030235"/>
<path d="M475.6 479C476.4 478.5 477.4 478.5 478.15 479.1C478.9 479.7 479.95 478.65 479.2 478.05C477.95 477 476.2 476.85 474.85 477.75C474.05 478.25 474.8 479.55 475.6 479Z" fill="#030235"/>
<path d="M486.8 418.05C485.8 429.55 484.8 441.05 483.8 452.55" stroke="#030235" stroke-width="6" stroke-miterlimit="10"/>
<path d="M460.4 450.95C468.75 451.55 477.1 452.1 485.45 452.7" stroke="#030235" stroke-width="6" stroke-miterlimit="10"/>
<path d="M485.5 396.75C485.3 402.45 485.05 408.1 484.85 413.8" stroke="#030235" stroke-width="6" stroke-miterlimit="10"/>
<path d="M486.55 424.8C491.2 423.95 496.15 427.6 496.5 432.4C497 438.4 490.15 439.45 485.65 438.8C484.7 438.65 484.3 440.1 485.25 440.25C490.75 441.05 498.5 439.5 498 432.4C497.6 426.55 491.75 422.3 486.15 423.35C485.2 423.5 485.6 424.95 486.55 424.8Z" fill="#030235"/>
<path d="M485.45 441.45C487.4 441.85 488.95 443.25 489.5 445.15C489.75 446.1 491.2 445.7 490.95 444.75C490.3 442.35 488.35 440.45 485.9 440C484.9 439.85 484.5 441.25 485.45 441.45Z" fill="#030235"/>
<path d="M484.7 440.95C485.9 442.7 486.45 444.65 486.25 446.8C486.2 447.75 487.7 447.75 487.75 446.8C487.9 444.45 487.3 442.15 485.95 440.2C485.45 439.4 484.15 440.15 484.7 440.95Z" fill="#030235"/>
<path d="M460.05 424.1C456.75 422 450.7 428.05 449.95 431C448.45 437 456.15 436.3 459.35 438.3C460.15 438.8 460.9 437.5 460.1 437C457.8 435.55 454.4 436.1 452.4 434.3C449.95 432.1 452.2 429.45 453.9 427.9C454.8 427.1 457.85 424.45 459.3 425.35C460.1 425.95 460.9 424.65 460.05 424.1Z" fill="#030235"/>
<path d="M459.25 437.6C457.95 438.1 456.75 438.85 455.75 439.9C455 440.7 454.05 441.95 454.8 443.05C455.35 443.85 456.65 443.1 456.1 442.3C455.75 441.8 457.05 440.7 457.4 440.4C458.05 439.8 458.8 439.35 459.65 439.05C460.55 438.7 460.2 437.25 459.25 437.6Z" fill="#030235"/>
<path d="M458.65 438.65C457.7 440.15 457.4 441.85 457.75 443.55C457.95 444.5 459.4 444.1 459.2 443.15C458.9 441.8 459.2 440.55 459.95 439.4C460.5 438.6 459.2 437.85 458.65 438.65Z" fill="#030235"/>
<path d="M463.4 423.15C463.15 426.8 463.2 430.5 463.45 434.15C463.55 435.1 465.05 435.1 464.95 434.15C464.65 430.5 464.65 426.8 464.9 423.15C465 422.2 463.5 422.2 463.4 423.15Z" fill="#030235"/>
<path d="M464.5 423.55C469.8 423.85 475.05 424.05 480.35 424.15C480.1 423.9 479.85 423.65 479.6 423.4C479.45 427.15 479.3 430.95 479.1 434.7C479.05 435.65 480.55 435.65 480.6 434.7C480.75 430.95 480.9 427.15 481.1 423.4C481.1 423 480.75 422.65 480.35 422.65C475.05 422.55 469.8 422.35 464.5 422.05C463.55 422 463.55 423.5 464.5 423.55Z" fill="#030235"/>
<path d="M463.9 434.8C466.1 435.4 468.55 435.25 470.75 435.4C473.45 435.55 476.2 435.75 478.9 435.9C479.85 435.95 479.85 434.45 478.9 434.4C476.5 434.25 474.1 434.1 471.7 433.95C469.3 433.8 466.6 433.95 464.25 433.35C463.4 433.1 463 434.55 463.9 434.8Z" fill="#030235"/>
<path d="M465.6 442.55C466.5 444.5 468.45 442.8 469.95 443.5C470.65 443.8 470.5 444.25 471.45 444.3C472.55 444.35 475.25 442.15 475.8 444.2C475.95 444.75 476.65 444.9 477.05 444.55C477.55 444.4 478.1 444.25 478.6 444.15C479.2 444.9 480.3 443.8 479.65 443.1C478.5 441.75 477.05 442.5 475.95 443.5C476.35 443.6 476.8 443.7 477.2 443.85C476.75 442.1 474.9 440.95 473.15 441.75C472.3 442.15 472.2 442.9 470.9 442.4C470.65 442.3 470.55 441.9 470.3 441.8C469.75 441.6 466.85 441.9 466.85 441.85C466.5 440.9 465.2 441.65 465.6 442.55Z" fill="#030235"/>
<path d="M468.25 403.2C468.35 402.65 469 402.5 469.45 402.7C470.1 402.95 470.45 403.7 470.75 404.25C471.15 405.1 472.45 404.35 472.05 403.5C471.5 402.4 470.65 401.25 469.3 401.1C468.2 401 467.05 401.65 466.85 402.75C466.6 403.75 468.05 404.15 468.25 403.2Z" fill="#030235"/>
<path d="M477.45 403.9C477.55 403.4 478 403.1 478.5 403.3C479.1 403.5 479.35 404.25 479.45 404.8C479.6 405.75 481.05 405.35 480.9 404.4C480.7 403.2 479.9 401.95 478.6 401.75C477.45 401.6 476.2 402.3 476 403.5C475.85 404.45 477.3 404.85 477.45 403.9Z" fill="#030235"/>
<path d="M469 406.35C470.7 409.35 474.75 409.8 476.95 407.1C477.55 406.35 476.5 405.3 475.9 406.05C474.3 408 471.55 407.85 470.3 405.6C469.85 404.75 468.55 405.5 469 406.35Z" fill="#030235"/>
<path d="M416.55 134.65C410.25 132.1 406.45 126 404.15 119.9C401.7 113.55 400.65 106.65 401 99.8502C401.6 87.3002 406.95 74.6002 416.85 66.6002C426.2 59.0002 440.05 56.8502 450.45 63.7502C461.3 70.9502 463.25 85.8002 463.35 97.7502C463.45 111.05 460.35 125 450.5 134.55C449.8 135.2 450.85 136.3 451.55 135.6C460.9 126.5 464.45 113.5 464.8 100.8C465.15 88.3502 463.65 72.6002 453.4 64.0502C443.8 56.0502 429.55 56.4502 419.3 62.9502C407.95 70.1502 401.25 83.2002 399.8 96.3502C398.9 104.5 399.9 112.95 402.9 120.65C405.45 127.15 409.5 133.35 416.2 136.05C417.05 136.45 417.4 135 416.55 134.65Z" fill="#030235"/>
<path d="M415.85 135.6C414.15 138 414.5 141.55 417 143.35C418.9 144.7 421.7 144.9 423.95 145.2C426.65 145.6 429.4 145.75 432.15 145.75C437.05 145.7 442.65 145.35 447.2 143.45C450.5 142.05 453 138.75 451.25 135.2C450.85 134.35 449.55 135.1 449.95 135.95C453.7 143.6 435.95 144.25 432.1 144.25C428.55 144.25 425 143.95 421.55 143.3C419.9 143 418.05 142.7 417 141.25C415.95 139.75 416.15 137.8 417.15 136.4C417.7 135.55 416.4 134.8 415.85 135.6Z" fill="#030235"/>
<path d="M417.45 143.701C417.45 146.201 417.5 148.751 417.8 151.251C417.95 152.401 418.2 153.401 419.15 154.101C420.5 155.101 422.75 155.051 424.35 155.201C427.05 155.401 429.8 155.401 432.5 155.301C435.05 155.201 437.6 155.001 440.15 154.751C441.65 154.601 443.35 154.651 444.5 153.501C447.05 151.001 447.1 146.251 446.45 143.101C446.25 142.151 444.8 142.551 445 143.501C445.35 145.201 445.45 146.901 445.1 148.651C444.6 151.101 443.9 152.701 441.15 153.201C437.95 153.801 434.35 153.801 431.1 153.851C427.9 153.901 424.3 154.051 421.15 153.301C418.25 152.601 419 146.101 419 143.701C418.95 142.751 417.45 142.751 417.45 143.701Z" fill="#030235"/>
<path d="M417.95 89.8499C423.95 93.5999 428.5 99.0999 431.05 105.7C431.4 106.6 432.85 106.2 432.5 105.3C429.8 98.2999 425.05 92.4999 418.75 88.5499C417.9 87.9999 417.15 89.2999 417.95 89.8499Z" fill="#030235"/>
<path d="M432.25 105.7C435.2 99.4997 439.5 94.1997 445 90.0997C445.75 89.5497 445 88.1998 444.25 88.7998C438.55 93.0498 434.05 98.5497 430.95 104.95C430.55 105.8 431.85 106.55 432.25 105.7Z" fill="#030235"/>
<path d="M431.05 103.95C431.8 114.25 432.15 124.55 432 134.85C432 135.8 433.5 135.8 433.5 134.85C433.65 124.55 433.3 114.2 432.55 103.95C432.45 102.95 430.95 102.95 431.05 103.95Z" fill="#030235"/>
<path d="M372.5 129.15C379.15 126.9 385.75 124.65 392.4 122.4C393.3 122.1 392.9 120.65 392 120.95C385.35 123.2 378.75 125.45 372.1 127.7C371.15 128 371.55 129.45 372.5 129.15Z" fill="#030235"/>
<path d="M380.1 119.15C382.4 118.5 384.7 117.8 387 117.15C387.9 116.9 387.55 115.45 386.6 115.7C384.3 116.35 382 117.05 379.7 117.7C378.8 118 379.15 119.45 380.1 119.15Z" fill="#030235"/>
<path d="M363.45 102.5C372.25 102.4 381 102.65 389.75 103.2C390.7 103.25 390.7 101.75 389.75 101.7C381 101.15 372.2 100.95 363.45 101C362.5 101 362.5 102.5 363.45 102.5Z" fill="#030235"/>
<path d="M382.05 95.6998C384.15 96.2498 386.3 96.4998 388.45 96.5498C389.4 96.5498 389.4 95.0498 388.45 95.0498C386.4 94.9998 384.4 94.7498 382.45 94.2498C381.5 93.9998 381.1 95.4498 382.05 95.6998Z" fill="#030235"/>
<path d="M378.8 49.15C386.65 55.9 393.8 63.3 400.25 71.4C400.85 72.15 401.9 71.1 401.3 70.35C394.85 62.25 387.7 54.8 379.85 48.1C379.15 47.45 378.05 48.5 378.8 49.15Z" fill="#030235"/>
<path d="M400.75 63.3502C402.1 64.7502 403.4 66.1502 404.75 67.6002C405.4 68.3002 406.45 67.2502 405.8 66.5502C404.45 65.1502 403.15 63.7502 401.8 62.3002C401.15 61.6002 400.1 62.6502 400.75 63.3502Z" fill="#030235"/>
<path d="M370.3 66.1503C372.75 67.6002 375.25 68.9502 377.8 70.2002C378.65 70.6502 379.4 69.3502 378.55 68.9002C376 67.6002 373.5 66.2502 371.05 64.8503C370.2 64.3503 369.45 65.6503 370.3 66.1503Z" fill="#030235"/>
<path d="M457.3 54.7499C464.7 47.3499 472.1 39.9499 479.5 32.5499C480.2 31.8499 479.1 30.7999 478.45 31.4999C471.05 38.8999 463.65 46.2999 456.25 53.6999C455.55 54.3999 456.6 55.4499 457.3 54.7499Z" fill="#030235"/>
<path d="M464.75 58.2001C466.65 56.8001 468.55 55.4501 470.45 54.0501C471.2 53.5001 470.5 52.2001 469.7 52.7501C467.8 54.1501 465.9 55.5001 464 56.9001C463.2 57.4501 463.95 58.7501 464.75 58.2001Z" fill="#030235"/>
<path d="M434.2 44.9501C435.7 37.7001 436.85 30.4001 437.55 23.0501C437.65 22.1001 436.15 22.1001 436.05 23.0501C435.35 30.2501 434.25 37.4501 432.75 44.5501C432.55 45.5001 434 45.9001 434.2 44.9501Z" fill="#030235"/>
<path d="M476.25 90.9496C489.85 89.6996 503.4 88.4496 517 87.1996C517.95 87.0996 517.95 85.5996 517 85.6996C503.4 86.9496 489.85 88.1996 476.25 89.4496C475.3 89.4996 475.25 90.9996 476.25 90.9496Z" fill="#030235"/>
<path d="M419.1 137.4C427.55 139.25 436.15 139.2 444.55 137.3C445.5 137.1 445.1 135.65 444.15 135.85C436 137.7 427.65 137.75 419.5 135.95C418.55 135.75 418.15 137.2 419.1 137.4Z" fill="#030235"/>
<path d="M420.35 150.1C426.8 150.95 433.25 151.15 439.75 150.7C440.7 150.65 440.7 149.15 439.75 149.2C433.25 149.65 426.8 149.45 420.35 148.6C419.4 148.5 419.4 150 420.35 150.1Z" fill="#030235"/>
<path d="M466.8 132.35C476.95 139.5 487.3 146.4 497.8 153.05C498.6 153.55 499.35 152.25 498.55 151.75C488.05 145.1 477.7 138.2 467.55 131.05C466.75 130.5 466 131.8 466.8 132.35Z" fill="#030235"/>
<path d="M335.777 515.303L335.433 515.687L335.558 516.187C337.736 524.846 339.859 538.736 336.302 554.892C335.572 558.188 334.898 561.217 334.081 563.476C333.672 564.606 333.249 565.478 332.807 566.074C332.365 566.67 331.98 566.892 331.658 566.94C331.236 567.002 330.445 566.798 329.209 565.363C328.004 563.963 326.561 561.597 324.855 557.923C321.479 550.649 317.177 538.477 311.672 519.171C316.315 513.478 320.946 507.796 325.577 502.114C330.117 496.544 334.656 490.974 339.207 485.394C343.824 488.934 348.406 492.437 353.024 495.938C350.259 499.029 347.504 502.13 344.75 505.23L344.749 505.231C341.762 508.593 338.775 511.954 335.777 515.303Z" stroke="#030235" stroke-width="1.94136"/>
<path d="M304 424.05C309.95 428.65 315.65 427 327.45 429C337.5 430.7 348.8 434.45 360.8 441.95C348 456.95 335.2 472.8 322.5 489.5C319.45 493.55 316.4 497.6 313.45 501.65C318.35 502.8 324.25 504.6 330.65 507.5C336.9 510.3 342 513.45 346.05 516.3C365.1 499.7 382.1 483.65 397.25 468.5C404.25 461.5 414.15 450.8 415.7 435.65C415.8 434.8 415.8 434.05 415.8 433.3C415.45 408.15 383.8 389.95 364.55 383.25C343.5 375.95 307.3 372 297.2 389.45C291.25 399.75 294.75 416.9 304 424.05Z" fill="#2466C5"/>
<path opacity="0.26" d="M340.95 398.9C340.6 403.65 339.75 409.3 338 415.55C336.75 420 335.25 423.95 333.75 427.3C332.1 427.95 330.5 428.6 328.85 429.25C339.6 433.5 350.4 437.75 361.15 442C353.15 451.15 345.1 460.75 337 470.75C328.65 481.05 320.7 491.15 313.15 501.1C318.5 502.85 323.8 504.6 329.15 506.3C348.3 485.2 367.45 464.05 386.6 442.95C388.6 437.2 388.5 432.7 387.9 429.55C385.15 414.15 366.3 401.6 340.95 398.9Z" fill="#6B6E85"/>
<path opacity="0.23" d="M361.05 441.9C362.8 444.55 364.5 447.25 366.25 449.9C351.35 467.85 336.45 485.75 321.55 503.7C318.9 503 316.2 502.25 313.55 501.55C323.1 488.45 333.4 475 344.55 461.45C350.1 454.7 355.6 448.2 361.05 441.9Z" fill="#6B6E85"/>
<path d="M334.869 487.318L334.64 486.857L334.13 486.788C329.681 486.188 325.233 485.576 320.782 484.963L320.782 484.963C316.675 484.398 312.568 483.833 308.46 483.277C309.631 477.578 310.841 471.878 312.053 466.175C319.121 467.467 326.2 468.749 333.277 470.03C340.499 471.338 347.719 472.645 354.928 473.964C363.315 492.295 367.967 504.402 370.134 512.167C371.228 516.09 371.671 518.844 371.666 520.706C371.661 522.611 371.194 523.295 370.829 523.531C370.558 523.701 370.125 523.782 369.404 523.617C368.681 523.45 367.793 523.062 366.748 522.469C364.659 521.282 362.178 519.414 359.486 517.376C346.246 507.347 338.879 495.387 334.869 487.318Z" fill="white" stroke="#030235" stroke-width="1.94136"/>
<path d="M280.9 382.2C254 390.1 237.6 406.5 227.05 417.3C212.8 431.95 195.3 449.9 200.35 463.15C202.95 469.9 210.85 474.05 247.65 480.45C275.45 485.3 299.55 487.9 318.35 489.35C320.7 480.75 323.05 472.2 325.35 463.6C306.45 457.5 287.6 451.45 268.7 445.35C280.3 442.9 292.5 440 305.2 436.45C314.85 433.75 324.05 430.95 332.8 428C340.9 411.65 342.65 394 334.2 384C322.4 370 295.95 377.75 280.9 382.2Z" fill="#2466C5"/>
<path opacity="0.29" d="M340.75 399.5C340.5 404.45 339.65 410.799 337.35 417.799C335.95 422.049 334.35 425.749 332.75 428.799C331.4 428.899 330.05 429.049 328.7 429.149C317.3 432.899 305.15 436.449 292.3 439.749C284 441.899 275.9 443.75 268.05 445.45C287 451.4 305.95 457.299 324.9 463.249C324.5 465.299 324 467.449 323.4 469.699C322.7 472.299 321.9 474.699 321.15 476.899C295 470.449 268.85 463.999 242.7 457.549C241.5 456.099 237.55 450.849 238.15 443.899C238.8 436.349 246 431 255.2 426.1C281.8 412 326.4 402.45 340.75 399.5Z" fill="#6B6E85"/>
<path opacity="0.24" d="M254.6 446.5C259.35 446.15 264.15 445.8 268.9 445.4C287.55 451.6 306.2 457.85 324.85 464.05C324.05 467 323.25 470 322.45 472.95C299.85 464.1 277.2 455.3 254.6 446.5Z" fill="#6B6E85"/>
<path d="M273.85 268.9C281.25 264.55 294.1 258.35 311.2 256.55C337.4 253.8 357.5 263.2 365.45 267.45C364 287.1 361.75 302.8 359.95 313.6C357.8 326.5 356.05 333.65 355.25 345.5C354.25 360.35 355.5 372.55 356.65 380.55C347.95 383.25 334.8 386.2 318.6 385.85C303 385.5 290.4 382.1 281.95 379.15C284.2 361.25 283.45 347.05 282.35 337.4C281.1 326.65 279.4 321.4 277.35 308.4C274.7 291.6 274 277.85 273.85 268.9Z" fill="#D9BC22" stroke="#030235" stroke-width="2" stroke-miterlimit="10"/>
<path opacity="0.14" d="M327.95 262.5C329 266.3 330.2 271.55 331 277.85C331.55 282.1 333.8 301.35 326.8 326.75C322.5 342.4 317.95 358.95 303.05 372.55C298.25 376.95 293.6 379.9 290.2 381.75C297.75 383.7 307.6 385.55 319.25 385.65C334.5 385.8 347.1 383.05 355.85 380.35C355.35 376.6 354.7 370.95 354.45 364.15C354.25 358.2 354.25 348.7 358.35 321.95C361.6 300.9 363.9 291.85 365.05 272.8C365.2 270.6 365.25 268.75 365.35 267.5C361.7 265.35 356.95 263 351.1 261.1C345.7 259.35 340.85 258.45 336.85 258.05C333.95 259.5 330.95 261 327.95 262.5Z" fill="#6B6E85"/>
<path opacity="0.17" d="M363.9 275.649C361.1 291.499 357.4 304.299 354.5 313.199C346 339.199 340.05 356.699 324 369.499C314.05 377.449 303.7 380.799 297.05 382.399C303.8 384.299 313.35 386.149 324.9 385.899C338.2 385.599 348.95 382.599 356 380.049C355.05 373.949 353.95 364.799 354.25 353.649C354.6 339.199 356.95 330.499 359.55 314.649C361 305.349 362.85 292.049 363.9 275.649Z" fill="#6B6E85"/>
<path d="M273.55 268.65C267.05 273.15 258.7 280.25 251.4 290.8C234.95 314.7 235.4 340.05 236.05 349.4C239.05 357.45 244.2 368 253.2 378.35C258.45 384.4 266.15 393.1 279.3 398.7C283.7 400.6 287.55 401.65 290.35 402.25C292.75 400.1 295.1 397.95 297.5 395.8C289.8 386.8 282.05 377.35 274.3 367.6C268.35 360.15 262.65 352.75 257.15 345.45C257.35 339.3 258.65 328.15 265.35 316.5C269.15 309.9 273.6 305.1 277.15 301.85C275.95 290.8 274.75 279.75 273.55 268.65Z" fill="white" stroke="#030235" stroke-width="2" stroke-miterlimit="10"/>
<path opacity="0.13" d="M274.5 279.8C260.1 296.05 253.25 311.45 249.85 321.15C243.9 337.95 245.15 346.75 246.05 350.95C246.8 354.25 248.45 359.9 254.5 368.5C259.75 375.95 270.8 389.3 291.85 400.3C293.7 398.5 295.55 396.75 297.4 394.95C291.45 388.25 285.45 381.2 279.4 373.85C271.45 364.2 264.05 354.7 257.2 345.4C257.4 340.35 258.25 333.3 261.2 325.4C265.65 313.55 272.65 305.75 277 301.6C276.1 294.35 275.3 287.1 274.5 279.8Z" fill="#6B6E85"/>
<path opacity="0.16" d="M257.15 346.051C258.05 351.901 259.9 359.351 263.8 367.401C272.4 384.901 285.85 394.551 292.7 398.751C294.05 397.551 295.35 396.401 296.7 395.201C283.5 378.801 270.35 362.401 257.15 346.051Z" fill="#6B6E85"/>
<path d="M366.2 267.75C373.5 272.2 382.9 279.15 391.05 289.5C409.55 312.95 409 337.85 408.3 347.05C404.9 354.95 399.15 365.3 389.05 375.5C383.15 381.4 374.5 389.95 359.75 395.5C354.8 397.35 350.45 398.4 347.3 399C344.65 396.9 341.95 394.8 339.3 392.7C347.9 383.85 356.65 374.6 365.35 365C372 357.65 378.4 350.4 384.6 343.25C384.35 337.25 382.95 326.3 375.4 314.8C371.1 308.3 366.15 303.6 362.15 300.4C363.55 289.5 364.9 278.65 366.2 267.75Z" fill="white" stroke="#030235" stroke-width="2" stroke-miterlimit="10"/>
<path opacity="0.16" d="M365.85 279.9C372.2 286.55 380.85 297.2 387.6 312.05C390.8 319.1 396 330.55 396.1 341.35C396.45 374.2 349.95 396.8 347.25 398.1C344.6 396.4 342 394.75 339.35 393.05C354.4 376.55 369.4 360.05 384.45 343.55C384.15 338.15 382.9 328.1 376.9 317.4C371.95 308.6 365.8 302.9 361.75 299.75C363.15 293.15 364.5 286.55 365.85 279.9Z" fill="#6B6E85"/>
<path opacity="0.12" d="M384.95 343.699C384.2 348.049 382.95 352.799 381 357.699C372.2 379.899 354.4 392.049 345.4 397.249C343.25 395.849 341.15 394.449 339 393.049C354.3 376.599 369.6 360.149 384.95 343.699Z" fill="#6B6E85"/>
<path d="M377.7 347.4H254.75V425.25H377.7V347.4Z" fill="white" stroke="#030235" stroke-width="2" stroke-miterlimit="10"/>
<path d="M314.45 393.75C307.95 394.55 304.8 386.65 306.5 381.4C308.15 376.2 314.3 373.75 319.3 375.55C324.25 377.35 326.65 383.4 324.9 388.25C322.95 393.65 316.15 395.85 311.15 393.45C310.3 393.05 309.5 394.35 310.4 394.75C314.85 396.9 320.3 396.1 323.85 392.6C327.3 389.15 327.8 383.7 325.65 379.45C320.75 369.75 305.6 372.85 304.55 383.5C304 389.2 308.1 396.05 314.45 395.3C315.4 395.15 315.4 393.65 314.45 393.75Z" fill="#030235"/>
<path opacity="0.14" d="M300.9 347.201C317.55 353.001 328.9 367.85 329.25 383.8C329.7 403.8 312.9 422.601 290 424.501C319.15 424.751 348.3 425.001 377.5 425.251C377.4 399.151 377.35 373.05 377.25 347C351.8 347 326.35 347.101 300.9 347.201Z" fill="#6B6E85"/>
<path opacity="0.26" d="M377.5 346.95C377.05 362.85 373.9 375.25 371.25 383.4C367.35 395.25 364.55 403.9 356.5 411.55C345.55 422.05 331.9 424 325.9 424.5C342.95 424.65 360 424.8 377.05 425C377.1 410.15 377.2 395.3 377.3 380.4C377.3 369.25 377.4 358.1 377.5 346.95Z" fill="#6B6E85"/>
<path d="M312.6 228.55C309.85 231.9 312.5 236 312 246.95C311.75 252.4 310.85 256.8 310.15 259.75C312.5 260.85 316.65 262.4 322 262.55C328.6 262.7 333.6 260.65 336.05 259.45C334.95 257.25 333.5 253.85 332.6 249.45C330.35 238.25 334.35 233 331.05 228.85C327.2 224.05 316.3 224 312.6 228.55Z" fill="white" stroke="#030235" stroke-width="2" stroke-miterlimit="10"/>
<path d="M295.15 180.45C292 188.55 293.2 195.85 293.9 199C293.6 199.05 287.75 200.3 286.15 204.8C284.55 209.35 287.85 215.8 294.75 217.9C297.25 224 303.3 235.8 316.05 242.25C318.2 243.3 320.25 244.15 322.3 244.75C324.15 244.05 326.65 242.95 329.5 241.3C338.4 236.15 343.35 229.75 344.5 228.2C346.6 225.4 349.45 220.9 351.45 214.7C352.55 214.9 354.5 215 356.4 214.05C360.7 211.85 362.85 205 359.85 200.55C357.35 196.85 352.5 196.7 351.9 196.7C352.55 194.1 354.55 184.75 349.5 175.5C343.7 164.85 331.25 159.25 319.55 160.85C302.25 163.1 295.45 179.65 295.15 180.45Z" fill="white" stroke="#030235" stroke-width="2" stroke-miterlimit="10"/>
<path d="M311.95 241.799C315 243.599 318.35 246.399 322.1 246.099C325.2 245.849 328.65 244.049 331 242.149C331.75 241.549 330.7 240.499 329.95 241.099C327.75 242.849 324.2 244.699 321.3 244.649C318.25 244.599 315.15 242.049 312.65 240.499C311.9 239.999 311.15 241.299 311.95 241.799Z" fill="#030235"/>
<path d="M311.75 242.449C314.6 244.899 317.85 247.649 321.85 247.449C325.75 247.249 329.4 244.649 331.95 241.849C332.6 241.149 331.55 240.099 330.9 240.799C328.7 243.199 325.6 245.549 322.2 245.899C318.45 246.249 315.45 243.699 312.8 241.399C312.1 240.749 311.05 241.799 311.75 242.449Z" fill="#030235"/>
<path d="M313.65 242.75C313.65 242.7 313.65 242.7 313.65 242.75C313.35 242.3 312.8 242.2 312.45 242.55C312.45 242.55 312.45 242.55 312.4 242.6C312.1 242.85 312.1 243.4 312.4 243.65C317.9 248.9 328 250.6 331.95 242.55C332.35 241.7 331.1 240.9 330.65 241.8C327.15 249 318.3 247.25 313.5 242.6C313.5 242.95 313.5 243.3 313.5 243.65C313.5 243.65 313.5 243.65 313.55 243.6C313.15 243.55 312.75 243.5 312.35 243.45V243.5C312.85 244.3 314.15 243.55 313.65 242.75Z" fill="#030235"/>
<path d="M319.65 196.5C319 204.6 319.35 212.65 320.65 220.65C320.7 221.05 321.2 221.3 321.55 221.15C323.5 220.5 324.9 219.35 325.95 217.6C326.45 216.75 325.15 216 324.65 216.85C323.8 218.3 322.75 219.15 321.15 219.7C321.45 219.85 321.75 220.05 322.05 220.2C320.75 212.35 320.45 204.4 321.1 196.45C321.25 195.5 319.75 195.5 319.65 196.5Z" fill="#030235"/>
<path d="M310.75 204.45C310.85 204.9 311.6 207.7 310.75 208.15C309.9 208.6 307.5 206.8 306.75 204.45C306.15 202.45 306.65 199.95 307.6 199.75C308.6 199.5 310.15 202.25 310.75 204.45Z" fill="#030235" stroke="#030235" stroke-miterlimit="10"/>
<path d="M336.55 204.45C336.65 204.9 337.4 207.7 336.55 208.15C335.7 208.6 333.3 206.8 332.55 204.45C331.95 202.45 332.45 199.95 333.4 199.75C334.4 199.5 335.95 202.25 336.55 204.45Z" fill="#030235" stroke="#030235" stroke-miterlimit="10"/>
<path d="M317.85 227.25C323.95 229.85 329.5 226.2 334 222.25C334.75 221.6 333.65 220.55 332.95 221.2C329.05 224.6 324.05 228.25 318.65 225.95C317.7 225.6 316.95 226.9 317.85 227.25Z" fill="#030235"/>
<path d="M335.45 212.4C336.4 212.4 336.4 210.9 335.45 210.9C334.5 210.9 334.5 212.4 335.45 212.4Z" fill="#030235"/>
<path d="M341 209.6C341.05 209.55 341.1 209.5 341.15 209.45C341.45 209.15 341.45 208.7 341.15 208.4C340.85 208.1 340.4 208.1 340.1 208.4C340.05 208.45 340 208.5 339.95 208.55C339.65 208.85 339.65 209.3 339.95 209.6C340.25 209.9 340.7 209.9 341 209.6Z" fill="#030235"/>
<path d="M339.35 213.25C339.4 213.25 339.45 213.25 339.5 213.25C339.9 213.25 340.25 212.9 340.25 212.5C340.25 212.1 339.9 211.75 339.5 211.75C339.45 211.75 339.4 211.75 339.35 211.75C338.95 211.75 338.6 212.1 338.6 212.5C338.6 212.9 338.9 213.25 339.35 213.25Z" fill="#030235"/>
<path d="M304.85 195.5C306.75 193.9 309.55 193.85 311.45 195.4C312.2 196 313.25 194.95 312.5 194.35C309.9 192.25 306.3 192.25 303.75 194.45C303.05 195.05 304.15 196.1 304.85 195.5Z" fill="#030235"/>
<path d="M329.25 194.95C331.4 193.05 334.45 192.7 337 194.05C337.85 194.5 338.6 193.2 337.75 192.75C334.6 191.05 330.85 191.5 328.2 193.9C327.45 194.55 328.5 195.6 329.25 194.95Z" fill="#030235"/>
<path d="M305.25 212.25C306.2 212.25 306.2 210.75 305.25 210.75C304.3 210.75 304.3 212.25 305.25 212.25Z" fill="#030235"/>
<path d="M310.55 211.55C311.5 211.55 311.5 210.05 310.55 210.05C309.6 210.05 309.6 211.55 310.55 211.55Z" fill="#030235"/>
<path d="M307.9 212.7C307.85 212.75 307.8 212.8 307.75 212.85C307.45 213.15 307.45 213.6 307.75 213.9C308.05 214.2 308.5 214.2 308.8 213.9C308.85 213.85 308.9 213.8 308.95 213.75C309.25 213.45 309.25 213 308.95 212.7C308.65 212.4 308.2 212.4 307.9 212.7Z" fill="#030235"/>
<path d="M303.3 164.2C300.3 166.05 293.75 170.1 289.3 178.4C284.85 186.65 284.9 194.45 285.1 197.8C277.8 210.95 274.5 222.55 272.9 230.45C270.3 243 271.7 247.6 273.5 250.65C277.9 258.15 286.75 260 288.9 260.45C299.95 262.8 308.75 257.15 310.75 255.85C311.3 254.2 311.85 252.15 312.15 249.85C312.7 245.9 312.4 242.5 311.95 240.05C309.45 238 306.55 235.25 303.75 231.65C299.5 226.15 297.1 220.75 295.75 216.85C291.35 216.4 288.05 213.4 287.75 210.05C287.45 206.9 289.65 202.85 292.55 202.85C294.7 202.85 296.25 205.05 296.55 205.45C298.2 204.5 300.5 202.85 302.55 200.25C305.5 196.5 306 193.15 307.35 189.65C308.65 186.25 311.15 181.55 316.55 176.65C321.75 178.5 325.9 180.3 328.75 181.65C337.9 185.9 343.1 188.4 347.15 193.85C349.4 196.85 350.55 199.8 351.15 201.65C355.8 198.1 357.7 199.05 358.1 199.25C361.05 200.9 360.95 209.95 356.35 212.45C354.6 213.4 352.6 213.15 351.35 212.85C349.9 217.9 346.7 226.15 339.35 233.45C336.9 235.9 334.4 237.8 332.15 239.25C331.95 241.1 331.85 243.65 332.35 246.65C332.8 249.4 333.6 251.65 334.35 253.25C346.5 261.25 361.6 259.8 369.8 251.2C377.1 243.5 377.1 231.85 374.35 223.9C371.85 216.65 367 212.3 364.6 210.4C365.25 207.6 368.85 191 358.4 175.75C355.7 171.8 348.15 162.25 334.55 158.95C320.15 155.45 308.3 161.15 303.3 164.2Z" fill="#030235"/>
<path opacity="0.17" d="M335 184.75C340.65 191.85 342.15 198.4 342.65 201.8C344.7 216.1 336.4 227.7 332.2 233.65C328.75 238.5 325.2 241.95 322.65 244.2C324.85 250.1 327 255.95 329.2 261.85C331.45 261.1 333.7 260.35 335.95 259.6C334.9 257.75 333.8 255.45 332.95 252.65C331.4 247.65 331.3 243.25 331.45 240.25C334.2 238.3 337.4 235.65 340.5 232.15C346.7 225.15 349.8 217.95 351.4 213.1C352.4 213.3 354.55 213.55 356.6 212.4C360.9 209.95 360.2 203.85 360.15 203.45C360 202.15 359.7 200.05 358.2 199.2C356.45 198.25 353.55 199.15 351.25 201.85C350.55 199.4 348.55 193.75 343.15 189.25C340.15 186.75 337.1 185.45 335 184.75Z" fill="#6B6E85"/>
<path opacity="0.19" d="M320.35 196.95C320.05 196.9 319.05 201.25 316 220.45C317.75 220.45 319.5 220.45 321.25 220.45C320.9 217.9 320.5 214.2 320.3 209.7C320.05 202 320.65 197 320.35 196.95Z" fill="#6B6E85"/>
<path opacity="0.54" d="M364.3 210.9C363.45 211.4 366.65 215.7 366.2 222.1C366.05 224.1 365.75 228.65 362.15 231.7C361.9 231.9 356.55 236.3 351.25 233.5C348.1 231.85 346.2 228.35 346.3 224.55C344.8 227.35 342.35 231.05 338.5 234.65C336.1 236.9 333.75 238.55 331.7 239.8C331.55 242 331.55 245 332.35 248.4C332.8 250.25 333.35 251.85 333.9 253.15C335.45 254.15 337.75 255.5 340.75 256.55C342.65 257.2 353.1 260.85 363.3 255.8C365.1 254.9 369.1 252.85 372 248.45C372.35 247.9 373.65 245.95 374.6 242.65C378 231.35 373 221.15 372.55 220.3C369.8 214.75 365.35 210.3 364.3 210.9Z" fill="#030235"/>
<path opacity="0.35" d="M295.7 217.05C295.25 217.1 296.25 221.2 295.15 225.25C294.35 228.25 291.8 233.15 287.45 234.15C282.9 235.15 277.25 231.8 274.65 225.55C273.45 228.3 271.85 232.7 271.6 238.3C271.45 241.95 271.25 245.85 273.05 249.7C277.1 258.3 289 261.65 297.85 260.85C303.75 260.3 308.2 258 310.6 256.45C311.2 254.75 311.8 252.7 312.2 250.35C312.85 246.3 312.7 242.75 312.35 240.15C308.4 237.3 305.7 234.35 304 232.2C301.6 229.15 298.35 225.05 296.7 219.35C296.45 218.7 296 217 295.7 217.05Z" fill="#030235"/>
</g>
<defs>
<clipPath id="clip0_1162_114576">
<rect width="758" height="639" fill="white"/>
</clipPath>
</defs>
</svg>
